# Blender v2.79 (sub 0) OBJ File: ''
# www.blender.org
mtllib m1400B1A12.mtl
o mesh0
v -187.696289 -40.426109 122.851227
v -187.794724 -40.426109 121.710098
v -184.183777 -40.426109 121.905327
v -190.920944 -40.426109 122.562393
v -180.821686 -40.426109 119.863365
v -180.642136 -40.426109 121.014320
v -178.110733 -40.426109 122.219780
v -176.650589 -40.426109 121.678253
v -177.014999 -40.426109 122.690269
v -173.588486 -40.426109 114.312057
v -174.994919 -40.426109 123.015549
v -175.529907 -40.426109 124.113472
v -173.588486 -40.426109 124.196701
v -173.588486 -40.426109 123.079262
v -172.434692 -40.426109 124.607414
v -169.327332 -40.426109 124.352859
v -169.331375 -40.426109 125.525543
v -166.748276 -40.426109 123.811569
v -166.303711 -40.426109 125.045288
v -165.219955 -40.426109 122.569801
v -164.717804 -40.426109 123.740387
v -162.705460 -40.426109 121.341675
v -162.131439 -40.426109 118.526093
v -161.153687 -40.426109 119.115005
v -159.854691 -40.426109 116.129097
v -160.080765 -40.426109 114.312057
v -158.974045 -40.426109 114.312057
v -158.707397 -40.426109 111.950775
v -157.978073 -40.426109 112.860031
v -173.588486 -40.426105 100.535797
v -156.546005 -40.426109 111.005173
v -155.978836 -40.426109 112.139458
v -154.837082 -40.426109 111.681175
v -155.433502 -40.426109 110.067307
v -156.591034 -40.426109 110.127113
v -155.792801 -40.426109 108.019661
v -157.108871 -40.426109 107.560448
v -155.978836 -40.426109 106.862495
v -153.066208 -40.426109 106.203514
v -155.978836 -40.426105 100.535797
v -153.461517 -40.426105 105.218941
v -151.177582 -40.426105 104.369308
v -151.930527 -40.426105 103.778008
v -150.457397 -40.426105 102.963737
v -150.349243 -40.426105 100.535797
v -149.278198 -40.426105 100.535797
v -149.597214 -40.422649 99.162354
v -150.619125 -40.417164 96.983894
v -149.520477 -40.418392 97.472084
v -149.790695 -40.413593 95.566177
v -148.450012 -40.414982 96.117561
v -155.978836 -40.391418 86.759521
v -146.897034 -40.408142 93.401268
v -145.530991 -40.409473 93.930580
v -145.701492 -40.406986 92.944717
v -147.249268 -40.400127 90.219360
v -145.625168 -40.401741 90.861374
v -144.759583 -40.398918 89.739204
v -143.622711 -40.400986 90.559814
v -143.041763 -40.394215 87.871956
v -141.887878 -40.395237 88.278023
v -141.873169 -40.391415 86.759521
v -142.972229 -40.391415 86.759537
v -141.857697 -40.391415 86.503883
v -143.493958 -40.391415 85.509308
v -144.030594 -40.391415 86.227043
v -144.826614 -40.391415 85.017113
v -144.542648 -40.391415 84.206711
v -146.545975 -40.391415 84.157425
v -145.886337 -40.391415 83.537148
v -146.709747 -40.391415 82.587753
v -146.991760 -40.391415 82.438766
v -148.038132 -40.391411 81.367165
v -149.952911 -40.391411 80.877876
v -149.319977 -40.391411 80.100204
v -150.883453 -40.391411 79.665932
v -152.372772 -40.391415 80.272911
v -152.451370 -40.391411 79.348167
v -154.070801 -40.391411 79.155800
v -155.978836 -40.391415 79.691711
v -155.978836 -40.391415 78.922997
v -158.856201 -40.397079 78.863869
v -157.307129 -40.394032 78.398155
v -158.508759 -40.396397 77.736443
v -160.289001 -40.399902 77.590256
v -159.824478 -40.398987 76.833466
v -161.628784 -40.402542 76.524582
v -162.677032 -40.404613 77.303688
v -163.302109 -40.405842 76.423843
v -164.778488 -40.408749 77.431053
v -164.810989 -40.408813 76.612823
v -166.299393 -40.411739 76.381645
v -167.644104 -40.414394 77.048973
v -167.758286 -40.414612 76.171036
v -173.588486 -40.426105 86.759521
v -189.832504 -40.427231 96.110451
v -191.198151 -40.426373 99.740242
v -191.198151 -40.426105 100.535797
v -192.156860 -40.426105 100.535797
v -191.480606 -40.426701 98.757980
v -191.198151 -40.427227 97.181320
v -192.459625 -40.426353 99.800247
v -193.750275 -40.426105 100.535797
v -195.563766 -40.426105 103.147163
v -197.211761 -40.426105 102.888481
v -197.011673 -40.426105 103.554306
v -194.067276 -40.426105 104.643661
v -195.271606 -40.426105 104.939262
v -191.198151 -40.426109 114.312057
v -194.449356 -40.426109 107.350090
v -195.649460 -40.426109 107.250809
v -195.818481 -40.426109 109.037621
v -196.858551 -40.426109 108.833260
v -195.595627 -40.426109 114.312073
v -196.512436 -40.426109 113.509438
v -196.581146 -40.426109 114.312057
v -196.105057 -40.426109 115.437546
v -196.986237 -40.426109 115.460060
v -195.309067 -40.426109 118.239487
v -196.223587 -40.426109 118.688538
v -193.767975 -40.426109 120.644287
v -192.952866 -40.426109 119.958870
v -191.198151 -40.426109 122.366768
v -191.198151 -40.426109 121.232506
v -190.437485 -40.428455 92.926407
v -191.198151 -40.428310 93.942360
v -191.198151 -40.429119 91.525436
v -191.785889 -40.428879 92.249634
v -197.567642 -40.429859 89.405373
v -196.327942 -40.430031 88.819000
v -196.715790 -40.430714 86.781731
v -191.198151 -40.430714 86.759521
v -195.754822 -40.430714 86.759521
v -195.317429 -40.430714 82.066505
v -194.556198 -40.430714 82.675545
v -195.017899 -40.430710 81.846367
v -193.749725 -40.430710 81.357140
v -193.250336 -40.430714 82.315315
v -192.476486 -40.430710 80.653778
v -191.741882 -40.430710 81.302170
v -191.198151 -40.430710 80.604218
v -191.303177 -40.430710 79.779976
v -189.512924 -40.430271 80.063843
v -189.806396 -40.430321 79.234543
v -187.936935 -40.429855 79.230812
v -188.400452 -40.429958 78.462723
v -187.345764 -40.429680 77.332619
v -186.721130 -40.429539 78.037537
v -185.798050 -40.429298 77.294563
v -186.144135 -40.429371 76.570908
v -184.469681 -40.428951 76.799240
v -184.697632 -40.428993 76.019646
v -183.191177 -40.428600 75.997398
v -182.713547 -40.428490 76.720444
v -181.497772 -40.428173 76.180084
v -181.715500 -40.428226 75.363762
v -180.201828 -40.427830 75.734642
v -180.011810 -40.427780 76.495293
v -178.345734 -40.427345 75.819862
v -178.674927 -40.427433 75.083015
v -177.117203 -40.427021 75.206093
v -175.418854 -40.426579 76.135071
v -175.568268 -40.426620 75.373695
v -174.077545 -40.426228 74.897331
v -173.588486 -40.426102 75.132538
v -173.588486 -40.426102 75.819862
v -172.643036 -40.424240 76.030075
v -172.301254 -40.423565 75.335526
v -170.954681 -40.420914 76.180641
v -171.114716 -40.421230 76.921608
v -169.370132 -40.417789 76.190117
vt -0.987305 0.440430
vt -0.924805 0.206055
vt -0.911133 0.447266
vt -0.967773 0.655273
vt -0.788086 -0.017578
vt -0.865234 -0.030273
vt -0.945313 -0.198242
vt -0.909180 -0.295898
vt -0.976563 -0.271484
vt -0.417969 -0.500000
vt -0.998047 -0.406250
vt -1.071289 -0.370117
vt -1.077148 -0.500000
vt -1.002930 -0.500000
vt -1.104492 -0.577148
vt -1.087891 -0.784180
vt -1.166016 -0.784180
vt -1.051758 -0.956055
vt -1.133789 -0.985352
vt -0.968750 -1.057617
vt -1.046875 -1.090820
vt -0.886719 -1.225586
vt -0.699219 -1.263672
vt -0.738281 -1.329102
vt -0.539063 -1.415039
vt -0.417969 -1.400391
vt -0.417969 -1.474609
vt -0.260742 -1.492188
vt -0.321289 -1.540039
vt 0.500000 -0.500000
vt -0.198242 -1.635742
vt -0.273438 -1.673828
vt -0.243164 -1.750000
vt -0.135742 -1.709961
vt -0.139648 -1.632813
vt 0.000977 -1.686523
vt 0.032227 -1.598633
vt 0.078125 -1.673828
vt 0.122070 -1.868164
vt 0.500000 -1.673828
vt 0.187500 -1.841797
vt 0.244141 -1.994141
vt 0.284180 -1.943359
vt 0.337891 -2.041992
vt 0.500000 -2.048828
vt 0.500000 -2.120117
vt 0.591797 -2.099609
vt 0.736328 -2.031250
vt 0.704102 -2.104492
vt 0.831055 -2.085938
vt 0.794922 -2.175781
vt 1.417969 -1.673828
vt 0.975586 -2.279297
vt 0.940430 -2.370117
vt 1.005859 -2.358398
vt 1.187500 -2.255859
vt 1.144531 -2.364258
vt 1.219727 -2.421875
vt 1.165039 -2.497070
vt 1.343750 -2.536133
vt 1.317383 -2.613281
vt 1.417969 -2.614258
vt 1.417969 -2.541016
vt 1.435547 -2.615234
vt 1.501953 -2.505859
vt 1.454102 -2.469727
vt 1.534180 -2.416992
vt 1.588867 -2.436523
vt 1.591797 -2.302734
vt 1.632813 -2.346680
vt 1.696289 -2.291992
vt 1.706055 -2.272461
vt 1.777344 -2.203125
vt 1.810547 -2.075195
vt 1.862305 -2.117188
vt 1.890625 -2.013672
vt 1.850586 -1.914063
vt 1.912109 -1.909180
vt 1.924805 -1.800781
vt 1.889648 -1.673828
vt 1.940430 -1.673828
vt 1.944336 -1.482422
vt 1.975586 -1.584961
vt 2.019531 -1.504883
vt 2.029297 -1.386719
vt 2.080078 -1.416992
vt 2.100586 -1.296875
vt 2.048828 -1.227539
vt 2.107422 -1.185547
vt 2.040039 -1.086914
vt 2.094727 -1.084961
vt 2.110352 -0.986328
vt 2.065430 -0.896484
vt 2.124023 -0.888672
vt 1.417969 -0.500000
vt 0.794922 0.583008
vt 0.552734 0.673828
vt 0.500000 0.673828
vt 0.500000 0.737305
vt 0.618164 0.692383
vt 0.723633 0.673828
vt 0.548828 0.757813
vt 0.500000 0.843750
vt 0.326172 0.964844
vt 0.342773 1.074219
vt 0.298828 1.061523
vt 0.226563 0.865234
vt 0.206055 0.945313
vt -0.417969 0.673828
vt 0.045898 0.890625
vt 0.052734 0.970703
vt -0.066406 0.981445
vt -0.052734 1.050781
vt -0.417969 0.966797
vt -0.365234 1.028320
vt -0.417969 1.032227
vt -0.493164 1.000977
vt -0.495117 1.059570
vt -0.679688 0.948242
vt -0.709961 1.008789
vt -0.840820 0.844727
vt -0.794922 0.791016
vt -0.955078 0.673828
vt -0.879883 0.673828
vt 1.006836 0.623047
vt 0.939453 0.673828
vt 1.100586 0.673828
vt 1.052734 0.712891
vt 1.248047 1.092773
vt 1.281250 1.015625
vt 1.417969 1.041992
vt 1.417969 0.673828
vt 1.417969 0.977539
vt 1.729492 0.945313
vt 1.690430 0.897461
vt 1.744141 0.923828
vt 1.769531 0.838867
vt 1.714844 0.810547
vt 1.820313 0.750000
vt 1.782227 0.709961
vt 1.828125 0.673828
vt 1.889648 0.673828
vt 1.864258 0.561523
vt 1.916992 0.575195
vt 1.919922 0.456055
vt 1.963867 0.483398
vt 2.040039 0.412109
vt 2.000000 0.375000
vt 2.048828 0.313477
vt 2.092773 0.333008
vt 2.082031 0.225586
vt 2.133789 0.237305
vt 2.133789 0.137695
vt 2.087891 0.108398
vt 2.123047 0.027344
vt 2.177734 0.041992
vt 2.153320 -0.059570
vt 2.102539 -0.072266
vt 2.147461 -0.182617
vt 2.196289 -0.161133
vt 2.188477 -0.264648
vt 2.125977 -0.377930
vt 2.176758 -0.368164
vt 2.208984 -0.467773
vt 2.193359 -0.500000
vt 2.147461 -0.500000
vt 2.133789 -0.563477
vt 2.179688 -0.585938
vt 2.123047 -0.675781
vt 2.074219 -0.665039
vt 2.123047 -0.781250
vn -0.5742 0.0111 0.8187
vn -0.2723 0.0111 0.9621
vn 0.7293 0.0111 0.6841
vn -0.9966 0.0111 0.0814
vn -0.0193 0.0111 -0.9998
vn -0.8323 0.0111 0.5542
vn -0.9979 0.0111 -0.0646
vn 0.7451 0.0111 -0.6669
vn -0.9270 0.0111 -0.3748
vn -0.8654 0.0111 -0.5009
vn -0.0542 0.0111 0.9985
vn -0.9997 0.0111 -0.0215
vn -0.9208 0.0111 0.3900
vn -0.6743 0.0111 -0.7384
vn -0.9878 0.0111 0.1551
vn 0.7810 0.0111 0.6244
vn -0.7929 0.0111 0.6092
vn -0.0072 0.0111 -0.9999
vn 0.0603 0.0111 0.9981
vn -0.8699 0.0111 -0.4932
vn 0.7003 0.0111 0.7137
vn 0.8671 0.0111 0.4979
vn -0.9976 0.0111 -0.0680
vn 0.9728 0.0111 0.2315
vn 0.9970 0.0111 0.0761
vn -0.8976 0.0111 0.4406
vn 0.9645 0.0111 0.2639
vn -0.9893 0.0111 0.1457
vn 0.5056 0.0111 0.8627
vn 0.7873 0.0111 0.6164
vn 0.7979 0.0111 -0.6027
vn -0.0577 0.0111 0.9983
vn 0.9987 0.0111 0.0497
vn 0.2549 0.0111 -0.9669
vn 0.7759 0.0111 0.6307
vn 0.9996 0.0111 0.0241
vn 0.6041 0.0111 0.7968
vn -0.9973 0.0111 -0.0727
vn 0.5421 0.0111 0.8402
vn -0.8104 0.0109 0.5858
vn 0.9592 0.0111 -0.2824
vn 0.8832 0.0111 0.4689
vn -0.6411 0.0111 0.7673
vn 0.9901 0.0111 0.1398
vn -0.9590 0.0115 0.2832
vn 0.8464 0.0124 -0.5324
vn 0.5667 0.0114 -0.8238
vn -0.2675 0.0069 0.9635
vn 0.9974 0.0095 -0.0712
vn -0.9220 0.0084 0.3871
vn 0.6886 0.0075 0.7251
vn 0.3049 0.0073 0.9524
vn 0.6994 0.0112 -0.7147
vn 0.9995 0.0094 -0.0288
vn 0.6057 0.0114 -0.7956
vn -0.1579 0.0069 0.9874
vn 0.7822 0.0078 0.6230
vn -0.3136 0.0117 -0.9495
vn 0.2810 0.0069 0.9597
vn -0.9853 0.0098 -0.1703
vn 0.9921 0.0097 -0.1253
vn 0.7549 0.0094 -0.6558
vn 0.6616 0.0082 0.7498
vn -0.1779 0.0111 -0.9840
vn -0.7938 0.0111 -0.6081
vn 0.3173 0.0111 -0.9483
vn -0.9988 0.0111 -0.0484
vn -0.8419 0.0111 -0.5395
vn 0.9561 0.0111 -0.2929
vn -0.8611 0.0111 -0.5083
vn -0.8488 0.0111 -0.5286
vn -0.8785 0.0111 -0.4776
vn -0.7112 0.0111 -0.7029
vn 0.9733 0.0111 0.2291
vn -0.9635 0.0111 -0.2676
vn -0.9509 0.0111 0.3093
vn 0.5999 0.0111 -0.8000
vn -0.8928 0.0111 0.4503
vn -0.8547 0.0111 0.5191
vn 0.6220 0.0113 -0.7829
vn -0.9589 0.0095 0.2838
vn 0.8847 0.0143 -0.4660
vn -0.9955 0.0106 -0.0941
vn -0.9494 0.0106 -0.3140
vn 0.9996 0.0145 0.0231
vn -0.9998 0.0105 0.0144
vn -0.8495 0.0108 0.5275
vn 0.2625 0.0130 -0.9648
vn -0.6601 0.0112 0.7511
vn 0.1258 0.0128 -0.9920
vn -0.7276 0.0111 0.6859
vn -0.8833 0.0108 0.4688
vn 0.4415 0.0134 -0.8972
vn -0.7937 0.0109 0.6083
vn -0.8674 0.0115 -0.4975
vn 0.5046 0.0112 -0.8633
vn -0.3713 0.0111 -0.9285
vn -0.7071 0.0110 -0.7070
vn 0.0926 0.0109 -0.9956
vn 0.9893 0.0114 0.1454
vn 0.8206 0.0116 -0.5713
vn 0.5220 0.0117 0.8528
vn 0.3236 0.0111 0.9461
vn -0.7395 0.0111 -0.6731
vn 0.9946 0.0111 -0.1033
vn -0.3940 0.0111 -0.9190
vn 0.9378 0.0111 0.3470
vn 0.0489 0.0111 -0.9987
vn -0.8790 0.0111 -0.4767
vn 0.4695 0.0111 -0.8828
vn 0.9995 0.0111 0.0291
vn -0.9999 0.0111 0.0095
vn 0.9786 0.0111 -0.2053
vn -0.4939 0.0111 0.8694
vn 0.7151 0.0111 -0.6989
vn 0.9356 0.0111 -0.3530
vn -0.7244 0.0111 0.6893
vn 0.7787 0.0111 -0.6273
vn -0.9679 0.0111 0.2512
vn -0.3380 0.0111 -0.9411
vn -0.8880 0.0111 -0.4597
vn 0.6567 0.0111 -0.7540
vn -0.9132 0.0111 -0.4074
vn 0.1569 0.0111 0.9876
vn -0.6994 0.0116 0.7146
vn 0.4360 0.0114 -0.8999
vn -0.2840 0.0119 0.9587
vn -0.6149 0.0111 -0.7885
vn -0.0143 0.0110 -0.9998
vn -0.7373 0.0116 0.6755
vn 0.9832 0.0115 -0.1822
vn -0.9196 0.0115 -0.3927
vn 0.4916 0.0116 0.8707
vn 0.9047 0.0111 0.4258
vn 0.1740 0.0111 -0.9847
vn 0.2149 0.0111 0.9766
vn 0.0873 0.0111 0.9961
vn 0.9993 0.0111 0.0358
vn 0.3517 0.0111 0.9360
vn 0.7938 0.0111 -0.6081
vn -0.1617 0.0114 -0.9868
vn 0.2027 0.0114 0.9792
vn 0.5909 0.0115 -0.8066
vn 0.0660 0.0113 0.9978
vn -0.7596 0.0111 -0.6503
vn 0.5111 0.0114 0.8594
vn 0.5642 0.0114 0.8256
vn 0.7546 0.0115 -0.6561
vn 0.0829 0.0113 -0.9965
vn 0.1431 0.0113 0.9896
vn 0.5345 0.0115 -0.8451
vn -0.3954 0.0112 0.9184
vn -0.3569 0.0112 0.9341
vn 0.9877 0.0116 0.1562
vn 0.4571 0.0114 -0.8894
vn -0.5811 0.0112 0.8138
vn -0.5828 0.0112 0.8125
vn 0.7319 0.0115 0.6814
vn 0.4314 0.0114 -0.9021
vn -0.4447 0.0112 0.8956
vn -0.8260 0.0111 0.5636
vn 0.9842 0.0116 -0.1767
vn -0.5512 0.0112 0.8343
vn -0.7982 0.0111 0.6023
vn -0.9836 0.0121 0.1797
vn 0.8168 0.0136 0.5768
vn 0.9814 0.0144 0.1917
vn -0.9976 0.0105 0.0685
vn -0.9761 0.0106 0.2172
vn 0.0447 0.0126 0.9989
vn -0.7029 0.0111 0.7112
usemtl m0010B0A18_0
s 1
f 1/1/1 3/2/2 2/3/3
f 2/3/3 4/4/4 1/1/1
f 5/5/5 2/3/3 3/2/2
f 3/2/2 6/6/6 5/5/5
f 7/7/7 5/5/5 6/6/6
f 8/8/8 5/5/5 7/7/7
f 7/7/7 9/9/9 8/8/8
f 5/5/5 8/8/8 10/10/10
f 10/10/10 2/3/3 5/5/5
f 11/11/11 10/10/10 8/8/8
f 8/8/8 9/9/9 11/11/11
f 12/12/12 11/11/11 9/9/9
f 11/11/11 12/12/12 13/13/13
f 13/13/13 14/14/14 11/11/11
f 10/10/10 11/11/11 14/14/14
f 15/15/15 14/14/14 13/13/13
f 16/16/16 10/10/10 14/14/14
f 14/14/14 15/15/15 16/16/16
f 17/17/17 16/16/16 15/15/15
f 16/16/16 17/17/17 18/18/18
f 18/18/18 10/10/10 16/16/16
f 18/18/18 17/17/17 19/19/19
f 19/19/19 20/20/20 18/18/18
f 10/10/10 18/18/18 20/20/20
f 20/20/20 19/19/19 21/21/21
f 21/21/21 22/22/22 20/20/20
f 23/23/23 20/20/20 22/22/22
f 10/10/10 20/20/20 23/23/23
f 23/23/23 22/22/22 24/24/24
f 24/24/24 25/25/25 23/23/23
f 26/26/26 23/23/23 25/25/25
f 10/10/10 23/23/23 26/26/26
f 26/26/26 25/25/25 27/27/27
f 27/27/27 28/28/28 26/26/26
f 28/28/28 27/27/27 29/29/29
f 26/26/26 28/28/28 30/30/30
f 30/30/30 10/10/10 26/26/26
f 31/31/31 30/30/30 28/28/28
f 28/28/28 29/29/29 31/31/31
f 32/32/32 31/31/31 29/29/29
f 31/31/31 32/32/32 33/33/33
f 33/33/33 34/34/34 31/31/31
f 35/35/35 31/31/31 34/34/34
f 30/30/30 31/31/31 35/35/35
f 35/35/35 34/34/34 36/36/36
f 36/36/36 37/37/37 35/35/35
f 30/30/30 35/35/35 37/37/37
f 38/38/38 37/37/37 36/36/36
f 36/36/36 39/39/39 38/38/38
f 37/37/37 38/38/38 40/40/40
f 40/40/40 30/30/30 37/37/37
f 41/41/41 40/40/40 38/38/38
f 38/38/38 39/39/39 41/41/41
f 42/42/42 41/41/41 39/39/39
f 41/41/41 42/42/42 43/43/43
f 43/43/43 40/40/40 41/41/41
f 43/43/43 42/42/42 44/44/44
f 44/44/44 45/45/45 43/43/43
f 40/40/40 43/43/43 45/45/45
f 45/45/45 44/44/44 46/46/46
f 46/46/46 47/47/47 45/45/45
f 48/48/48 45/45/45 47/47/47
f 40/40/40 45/45/45 48/48/48
f 48/48/48 47/47/47 49/49/49
f 49/49/49 50/50/50 48/48/48
f 50/50/50 49/49/49 51/51/51
f 48/48/48 50/50/50 52/52/52
f 52/52/52 40/40/40 48/48/48
f 53/53/53 52/52/52 50/50/50
f 50/50/50 51/51/51 53/53/53
f 54/54/54 53/53/53 51/51/51
f 53/53/53 54/54/54 55/55/55
f 55/55/55 56/56/56 53/53/53
f 52/52/52 53/53/53 56/56/56
f 56/56/56 55/55/55 57/57/57
f 57/57/57 58/58/58 56/56/56
f 52/52/52 56/56/56 58/58/58
f 58/58/58 57/57/57 59/59/59
f 59/59/59 60/60/60 58/58/58
f 52/52/52 58/58/58 60/60/60
f 60/60/60 59/59/59 61/61/61
f 61/61/61 62/62/62 60/60/60
f 63/63/63 60/60/60 62/62/62
f 52/52/52 60/60/60 63/63/63
f 63/63/63 62/62/62 64/64/64
f 64/64/64 65/65/65 63/63/63
f 66/66/66 63/63/63 65/65/65
f 52/52/52 63/63/63 66/66/66
f 66/66/66 67/67/67 52/52/52
f 67/67/67 66/66/66 65/65/65
f 65/65/65 68/68/68 67/67/67
f 69/69/69 67/67/67 68/68/68
f 52/52/52 67/67/67 69/69/69
f 69/69/69 68/68/68 70/70/70
f 70/70/70 71/71/71 69/69/69
f 72/72/72 69/69/69 71/71/71
f 69/69/69 72/72/72 73/73/73
f 73/73/73 74/74/74 69/69/69
f 52/52/52 69/69/69 74/74/74
f 74/74/74 73/73/73 75/75/75
f 75/75/75 76/76/76 74/74/74
f 77/77/77 74/74/74 76/76/76
f 52/52/52 74/74/74 77/77/77
f 77/77/77 76/76/76 78/78/78
f 78/78/78 79/79/79 77/77/77
f 80/80/80 77/77/77 79/79/79
f 52/52/52 77/77/77 80/80/80
f 80/80/80 79/79/79 81/81/81
f 81/81/81 82/82/82 80/80/80
f 52/52/52 80/80/80 82/82/82
f 82/82/82 81/81/81 83/83/83
f 83/83/83 84/84/84 82/82/82
f 85/85/85 82/82/82 84/84/84
f 52/52/52 82/82/82 85/85/85
f 85/85/85 84/84/84 86/86/86
f 86/86/86 87/87/87 85/85/85
f 88/88/88 85/85/85 87/87/87
f 52/52/52 85/85/85 88/88/88
f 88/88/88 87/87/87 89/89/89
f 89/89/89 90/90/90 88/88/88
f 52/52/52 88/88/88 90/90/90
f 90/90/90 89/89/89 91/91/91
f 91/91/91 92/92/92 90/90/90
f 93/93/93 90/90/90 92/92/92
f 92/92/92 94/94/94 93/93/93
f 90/90/90 93/93/93 95/95/95
f 95/95/95 52/52/52 90/90/90
f 40/40/40 52/52/52 95/95/95
f 95/95/95 30/30/30 40/40/40
f 30/30/30 95/95/95 96/96/96
f 96/96/96 97/97/97 30/30/30
f 98/98/98 30/30/30 97/97/97
f 10/10/10 30/30/30 98/98/98
f 98/98/98 97/97/97 99/99/99
f 99/99/99 10/10/10 98/98/98
f 100/100/100 99/99/99 97/97/97
f 97/97/97 101/101/101 100/100/100
f 96/96/96 101/101/101 97/97/97
f 99/99/99 100/100/100 102/102/102
f 102/102/102 103/103/103 99/99/99
f 104/104/104 99/99/99 103/103/103
f 10/10/10 99/99/99 104/104/104
f 104/104/104 103/103/103 105/105/105
f 105/105/105 106/106/106 104/104/104
f 107/107/107 104/104/104 106/106/106
f 10/10/10 104/104/104 107/107/107
f 107/107/107 106/106/106 108/108/108
f 10/10/10 107/107/107 109/109/109
f 109/109/109 2/3/3 10/10/10
f 110/110/110 109/109/109 107/107/107
f 107/107/107 108/108/108 110/110/110
f 111/111/111 110/110/110 108/108/108
f 110/110/110 111/111/111 112/112/112
f 112/112/112 109/109/109 110/110/110
f 112/112/112 111/111/111 113/113/113
f 113/113/113 114/114/114 112/112/112
f 109/109/109 112/112/112 114/114/114
f 114/114/114 113/113/113 115/115/115
f 115/115/115 116/116/116 114/114/114
f 117/117/117 114/114/114 116/116/116
f 109/109/109 114/114/114 117/117/117
f 117/117/117 116/116/116 118/118/118
f 119/119/119 109/109/109 117/117/117
f 117/117/117 118/118/118 119/119/119
f 120/120/120 119/119/119 118/118/118
f 119/119/119 120/120/120 121/121/121
f 121/121/121 122/122/122 119/119/119
f 109/109/109 119/119/119 122/122/122
f 123/123/123 122/122/122 121/121/121
f 109/109/109 122/122/122 124/124/124
f 124/124/124 2/3/3 109/109/109
f 123/123/123 124/124/124 122/122/122
f 4/4/4 2/3/3 124/124/124
f 124/124/124 123/123/123 4/4/4
f 101/101/101 96/96/96 125/125/125
f 125/125/125 126/126/126 101/101/101
f 125/125/125 96/96/96 95/95/95
f 127/127/127 126/126/126 125/125/125
f 125/125/125 95/95/95 127/127/127
f 128/128/128 126/126/126 127/127/127
f 127/127/127 129/129/129 128/128/128
f 129/129/129 127/127/127 130/130/130
f 130/130/130 131/131/131 129/129/129
f 132/132/132 130/130/130 127/127/127
f 127/127/127 95/95/95 132/132/132
f 130/130/130 132/132/132 133/133/133
f 133/133/133 131/131/131 130/130/130
f 134/134/134 131/131/131 133/133/133
f 133/133/133 135/135/135 134/134/134
f 132/132/132 135/135/135 133/133/133
f 136/136/136 134/134/134 135/135/135
f 135/135/135 137/137/137 136/136/136
f 138/138/138 137/137/137 135/135/135
f 135/135/135 132/132/132 138/138/138
f 139/139/139 137/137/137 138/138/138
f 138/138/138 140/140/140 139/139/139
f 132/132/132 140/140/140 138/138/138
f 141/141/141 139/139/139 140/140/140
f 140/140/140 132/132/132 141/141/141
f 142/142/142 139/139/139 141/141/141
f 141/141/141 143/143/143 142/142/142
f 132/132/132 143/143/143 141/141/141
f 144/144/144 142/142/142 143/143/143
f 145/145/145 143/143/143 132/132/132
f 132/132/132 95/95/95 145/145/145
f 144/144/144 143/143/143 145/145/145
f 145/145/145 146/146/146 144/144/144
f 147/147/147 146/146/146 145/145/145
f 145/145/145 148/148/148 147/147/147
f 95/95/95 148/148/148 145/145/145
f 149/149/149 147/147/147 148/148/148
f 148/148/148 95/95/95 149/149/149
f 150/150/150 147/147/147 149/149/149
f 149/149/149 151/151/151 150/150/150
f 95/95/95 151/151/151 149/149/149
f 152/152/152 150/150/150 151/151/151
f 151/151/151 153/153/153 152/152/152
f 154/154/154 153/153/153 151/151/151
f 151/151/151 95/95/95 154/154/154
f 155/155/155 153/153/153 154/154/154
f 154/154/154 95/95/95 155/155/155
f 156/156/156 153/153/153 155/155/155
f 155/155/155 157/157/157 156/156/156
f 158/158/158 157/157/157 155/155/155
f 155/155/155 95/95/95 158/158/158
f 159/159/159 157/157/157 158/158/158
f 158/158/158 95/95/95 159/159/159
f 160/160/160 157/157/157 159/159/159
f 159/159/159 161/161/161 160/160/160
f 162/162/162 161/161/161 159/159/159
f 159/159/159 95/95/95 162/162/162
f 163/163/163 161/161/161 162/162/162
f 162/162/162 164/164/164 163/163/163
f 165/165/165 164/164/164 162/162/162
f 162/162/162 166/166/166 165/165/165
f 95/95/95 166/166/166 162/162/162
f 167/167/167 165/165/165 166/166/166
f 166/166/166 95/95/95 167/167/167
f 168/168/168 165/165/165 167/167/167
f 167/167/167 169/169/169 168/168/168
f 170/170/170 169/169/169 167/167/167
f 167/167/167 95/95/95 170/170/170
f 93/93/93 170/170/170 95/95/95
f 170/170/170 93/93/93 94/94/94
f 94/94/94 171/171/171 170/170/170
f 169/169/169 170/170/170 171/171/171
